<svg enable-background="new 0 0 593.2 106" viewBox="0 0 593.2 106" xmlns="http://www.w3.org/2000/svg"><g fill="#fff"><path d="m137.9 55.1c3.4 3.4 7.6 5.1 12.3 5.1 4.6 0 7.3-2.1 7.3-4.7 0-1.6-.6-2.8-1.8-3.7-1.1-.9-3.4-2.1-6.7-3.4-6.5-2.8-10.1-5.8-10.1-11.2 0-3.1 1.2-5.6 3.6-7.4 2.4-1.9 5.4-2.8 9.2-2.8 3.5 0 6.6.9 9.2 2.6v6.9c-2.6-2.2-5.6-3.3-9-3.3-3.9 0-6.1 1.6-6.1 3.9-.2 1.3.9 2.3 1.9 3.2.5.4 2.2 1.3 2.8 1.5l1.8.8c.9.4 1.5.6 1.7.8 3.7 1.6 6.3 3.3 7.9 5.1s2.5 4.1 2.5 7c0 3.1-1.2 5.7-3.6 7.7s-5.8 3.1-10.1 3.1c-4.8 0-9.1-1.3-12.7-3.9z"/><path d="m168.8 38.2h6.6v16c0 4.1 2.3 6.2 6 6.2s6-2.1 6-6.2v-16h6.6v16.4c0 3.8-1.2 6.8-3.6 8.8s-5.4 3-9 3-6.6-1-9-3c-2.3-2-3.5-4.8-3.5-8.6-.1-.1-.1-16.6-.1-16.6z"/><path d="m199.4 76.2v-38h6.5v4c.9-2.7 4.3-4.6 8.8-4.6 3.9 0 7.1 1.4 9.8 4.1s4 6.1 4 10.2-1.3 7.5-4 10.2c-2.6 2.7-5.9 4.1-9.8 4.1-4.5 0-7.8-1.9-8.8-4.6v14.5zm20.2-18.3c1.6-1.6 2.3-3.6 2.3-6s-.8-4.4-2.3-6-3.4-2.4-5.8-2.4-4.4.8-6 2.4-2.4 3.6-2.4 6 .8 4.4 2.4 6 3.7 2.4 6 2.4 4.3-.8 5.8-2.4z"/><path d="m231.8 51.9c0-4.3 1.3-7.8 4-10.4 2.7-2.7 6.1-4 10.2-4 4 0 7.2 1.3 9.6 4 2.5 2.6 3.8 5.9 3.8 9.8 0 .8-.1 1.6-.1 2.3h-21c.2 4.4 3.4 7.1 8.3 7.1 4.3 0 7.6-1 9.9-3.2v6.1c-2.7 1.9-6 2.8-10.1 2.8-4.3 0-7.8-1.3-10.5-3.9s-4-6.1-4-10.4c-.1.1-.1-.2-.1-.2zm21-2.9c0-1.6-.7-3-2-4.1s-2.9-1.7-4.8-1.7c-2 0-3.8.6-5.2 1.7-1.5 1.1-2.2 2.5-2.3 4.1z"/><path d="m263.8 65.6v-27.4h6.5v4.1c1.3-2.9 4.3-4.6 8.2-4.6.8 0 1.4.1 2 .2v6.2c-.8-.2-1.7-.3-2.7-.3-4.5 0-7.4 2.8-7.4 7.4v14.4z"/><path d="m284.8 65.6v-38h13.6c6.3 0 11.2 1.7 14.7 5.3 3.5 3.5 5.3 8.1 5.3 13.8s-1.7 10.3-5.2 13.7-8.4 5.2-14.7 5.2zm6.8-6.1h6.3c9.4 0 13.6-5 13.6-12.8 0-8-4.1-12.9-13.6-12.9h-6.3z"/><path d="m344.7 42.2v-4h6.5v27.5h-6.5v-4c-.9 2.7-4.3 4.6-8.8 4.6-3.9 0-7.1-1.4-9.8-4.1-2.6-2.8-3.9-6.2-3.9-10.2s1.3-7.5 3.9-10.2c2.7-2.8 5.9-4.1 9.8-4.1 4.5-.1 7.9 1.8 8.8 4.5zm-2 15.7c1.6-1.6 2.5-3.6 2.5-6s-.8-4.4-2.5-6c-1.6-1.6-3.6-2.4-5.9-2.4s-4.3.8-5.8 2.4-2.3 3.6-2.3 6 .8 4.4 2.3 6c1.6 1.6 3.5 2.4 5.8 2.4s4.3-.8 5.9-2.4z"/><path d="m358.7 65.6v-21.5h-3.5v-5.9h3.5v-10.5h6.5v10.5h5.9v5.9h-5.9v21.5z"/><path d="m395.3 42.2v-4h6.5v27.5h-6.5v-4c-.9 2.7-4.3 4.6-8.8 4.6-3.9 0-7.1-1.4-9.8-4.1-2.6-2.8-3.9-6.2-3.9-10.2s1.3-7.5 3.9-10.2c2.7-2.8 5.9-4.1 9.8-4.1 4.6-.1 7.9 1.8 8.8 4.5zm-2 15.7c1.6-1.6 2.5-3.6 2.5-6s-.8-4.4-2.5-6c-1.6-1.6-3.6-2.4-5.9-2.4s-4.3.8-5.8 2.4-2.3 3.6-2.3 6 .8 4.4 2.3 6c1.6 1.6 3.5 2.4 5.8 2.4s4.4-.8 5.9-2.4z"/><path d="m406.9 55.1c3.4 3.4 7.6 5.1 12.3 5.1 4.6 0 7.3-2.1 7.3-4.7 0-1.6-.6-2.8-1.8-3.7-1.1-.9-3.4-2.1-6.7-3.4-6.5-2.8-10.1-5.8-10.1-11.2 0-3.1 1.2-5.6 3.6-7.4 2.4-1.9 5.4-2.8 9.2-2.8 3.5 0 6.6.9 9.2 2.6v6.9c-2.6-2.2-5.6-3.3-9-3.3-3.9 0-6.1 1.6-6.1 3.9-.2 1.3.9 2.3 1.9 3.2.5.4 2.2 1.3 2.8 1.5l1.8.8c.9.4 1.5.6 1.7.8 3.7 1.6 6.3 3.3 7.9 5.1s2.5 4.1 2.5 7c0 3.1-1.2 5.7-3.6 7.7s-5.8 3.1-10.1 3.1c-4.8 0-9.1-1.3-12.7-3.9z"/><path d="m460.7 40.1v6.5c-2.3-2.2-5.2-3.4-8.4-3.4-2.6 0-4.7.8-6.4 2.5-1.7 1.6-2.5 3.7-2.5 6.2s.8 4.5 2.5 6.2c1.7 1.6 3.8 2.5 6.4 2.5 3.3 0 6.2-1.1 8.4-3.4v6.5c-2.3 1.9-5.2 2.8-8.8 2.8-4.3 0-7.8-1.4-10.7-4.1-2.9-2.8-4.3-6.2-4.3-10.4s1.4-7.6 4.3-10.4 6.4-4.1 10.7-4.1c3.5-.2 6.4.7 8.8 2.6z"/><path d="m465.5 65.6v-22.9l6.5-4.5v27.5z"/><path d="m476.7 51.9c0-4.3 1.3-7.8 4-10.4 2.7-2.7 6.1-4 10.2-4 4 0 7.2 1.3 9.6 4 2.5 2.6 3.8 5.9 3.8 9.8 0 .8-.1 1.6-.1 2.3h-21c.2 4.4 3.4 7.1 8.3 7.1 4.3 0 7.6-1 9.9-3.2v6.1c-2.7 1.9-6 2.8-10.1 2.8-4.3 0-7.8-1.3-10.5-3.9s-4-6.1-4-10.4zm20.9-2.9c0-1.6-.7-3-2-4.1s-2.9-1.7-4.8-1.7c-2 0-3.8.6-5.2 1.7-1.5 1.1-2.2 2.5-2.3 4.1z"/><path d="m508.7 65.6v-27.4h6.5v3.9c1.3-2.7 4.4-4.5 8.3-4.5 6.5 0 10.4 4.2 10.4 11v17h-6.5v-16c0-3.8-2.2-6.1-5.8-6.1-3.7 0-6.4 2.6-6.4 6.4v15.8z"/><path d="m562 40.1v6.5c-2.3-2.2-5.2-3.4-8.4-3.4-2.6 0-4.7.8-6.4 2.5-1.7 1.6-2.5 3.7-2.5 6.2s.8 4.5 2.5 6.2c1.7 1.6 3.8 2.5 6.4 2.5 3.3 0 6.2-1.1 8.4-3.4v6.5c-2.3 1.9-5.2 2.8-8.8 2.8-4.3 0-7.8-1.4-10.7-4.1-2.9-2.8-4.3-6.2-4.3-10.4s1.4-7.6 4.3-10.4 6.4-4.1 10.7-4.1c3.6-.2 6.5.7 8.8 2.6z"/><path d="m565.7 51.9c0-4.3 1.3-7.8 4-10.4 2.7-2.7 6.1-4 10.2-4 4 0 7.2 1.3 9.6 4 2.5 2.6 3.8 5.9 3.8 9.8 0 .8-.1 1.6-.1 2.3h-21c.2 4.4 3.4 7.1 8.3 7.1 4.3 0 7.6-1 9.9-3.2v6.1c-2.7 1.9-6 2.8-10.1 2.8-4.3 0-7.8-1.3-10.5-3.9s-4-6.1-4-10.4zm21-2.9c0-1.6-.7-3-2-4.1s-2.9-1.7-4.8-1.7c-2 0-3.8.6-5.2 1.7-1.5 1.1-2.2 2.5-2.3 4.1z"/><path d="m106.2 55.1c3.1 0 5.6-2.5 5.6-5.6s-2.5-5.6-5.6-5.6-5.6 2.5-5.6 5.6c0 1.2.4 2.2 1 3.1l-6 8.7c-.5-.3-.9-.6-1.4-.8l7.8-17.5h.4c4 0 7.2-3.2 7.2-7.2s-3.2-7.2-7.2-7.2-7.2 3.2-7.2 7.2c0 2.3 1.1 4.3 2.7 5.7l-5.6 18.3c-.5-.1-.9-.2-1.4-.3l3.8-28.5c3.2-.8 5.5-3.6 5.5-7 0-4-3.2-7.2-7.2-7.2s-7.2 3.2-7.2 7.2c0 3 1.8 5.5 4.4 6.6l-1.2 28.8c-.1 0-.1 0-.2 0-.3 0-.6 0-1 0l-3.8-38.1c1.8-.9 3-2.8 3-5 0-3.1-2.5-5.6-5.6-5.6s-5.6 2.5-5.6 5.6c0 2.7 1.9 4.9 4.4 5.4l6.2 37.8c-.3.1-.5.1-.8.2l-12.6-44c1.4-.9 2.3-2.4 2.3-4.2 0-2.7-2.2-5-5-5-2.7 0-5 2.2-5 5 0 2.7 2.2 5 5 5h.1l14.2 43.5c-.2.1-.4.2-.7.2l-21-47c1-.9 1.7-2.2 1.7-3.7 0-2.7-2.2-4.9-4.9-4.9s-4.9 2.2-4.9 4.9 2.2 4.9 4.9 4.9c.3 0 .5 0 .7-.1l22.5 46.2c-.2.1-.4.2-.5.3l-29.7-48.1c.7-.8 1.2-1.8 1.2-3 0-2.5-2-4.5-4.5-4.5s-4.5 2-4.5 4.5 2 4.5 4.5 4.5c.5 0 .9-.1 1.3-.2l31 47.6c-.2.1-.3.3-.5.4l-38-47.2c.5-.8.8-1.7.8-2.8 0-2.7-2.2-4.8-4.8-4.8-2.7 0-4.8 2.2-4.8 4.8s2.2 4.8 4.8 4.8c.7 0 1.3-.1 1.9-.4l39.4 46.1c-.2.2-.4.4-.6.6l-45-42c.4-.8.6-1.7.6-2.6 0-3.5-2.8-6.3-6.3-6.3s-6.3 2.8-6.3 6.3 2.8 6.3 6.3 6.3c1.2 0 2.2-.3 3.2-.9l46.7 40.1c-.2.3-.4.6-.6.8l-51.3-33.2c.1-.4.1-.8.1-1.3 0-4.5-3.6-8.1-8.1-8.1s-8.1 3.6-8.1 8.1 3.6 8.1 8.1 8.1c1.8 0 3.5-.6 4.9-1.7l53.6 29.5c-.2.5-.4.9-.6 1.4l-47.4-16.2c-.7-7-6.5-12.4-13.6-12.4-7.5 0-13.6 6.1-13.6 13.6s6.1 13.6 13.6 13.6c4.6 0 8.7-2.3 11.2-5.8l49.2 9.5c-.1.3-.1.7-.1 1l-29.1-1.1c-1-3-3.9-5-7.2-4.8-4 .2-7 3.6-6.8 7.6s3.6 7 7.6 6.8c3.1-.2 5.6-2.2 6.5-5l29-1.6c.1.9.2 1.7.4 2.6l-4.9 1.6c-1.1-1.4-2.9-2.2-4.8-2-3.1.2-5.5 3-5.3 6.1s3 5.5 6.1 5.3 5.5-3 5.3-6.1c0-.1 0-.2 0-.2l4.5-2.3c.7 1.3 1.5 2.4 2.6 3.4l-4.8 5.3c-.5-.3-1.1-.4-1.7-.4-2.2 0-4 1.8-4 4s1.8 4 4 4 4-1.8 4-4c0-.9-.3-1.6-.7-2.3l4.4-5.6c.8.6 1.7 1.2 2.7 1.6l-5 13.1c-.1 0-.2 0-.3 0-1.3 0-2.3 1-2.3 2.3s1 2.3 2.3 2.3 2.3-1 2.3-2.3c0-.8-.4-1.5-1-1.9l4.8-13.2c1.3.4 2.6.7 4 .7 6.9 0 12.5-5.6 12.5-12.5 0-1.9-.4-3.6-1.1-5.2l2.2-1.1c.8.7 1.8 1.2 2.9 1.2 2.3 0 4.2-1.9 4.2-4.2s-1.9-4.2-4.2-4.2-4.2 1.9-4.2 4.2c0 .3 0 .6.1.9l-2 1.3c-.5-.8-1.2-1.5-1.9-2.2l7-8c.4 0 1 .1 1.7.1zm-3.9-23.3c2.3 0 4.1 1.8 4.1 4.1s-1.8 4.1-4.1 4.1-4.1-1.8-4.1-4.1c0-2.2 1.9-4.1 4.1-4.1zm-24-15.4c0-1.7 1.4-3.1 3.1-3.1s3.1 1.4 3.1 3.1-1.4 3.1-3.1 3.1-3.1-1.4-3.1-3.1zm-7.9-2.2c-1.4 0-2.5-1.1-2.5-2.5s1.1-2.5 2.5-2.5 2.5 1.1 2.5 2.5c0 1.3-1.2 2.5-2.5 2.5zm-10.6-2.1c-1.3 0-2.4-1.1-2.4-2.4s1.1-2.4 2.4-2.4 2.4 1.1 2.4 2.4c0 1.4-1.1 2.4-2.4 2.4zm-10.4-.4c-1.1 0-2-.9-2-2s.9-2 2-2 2 .9 2 2-.9 2-2 2zm-10.2 2.7c-1.3 0-2.4-1.1-2.4-2.4s1.1-2.4 2.4-2.4 2.4 1.1 2.4 2.4c-.1 1.4-1.1 2.4-2.4 2.4zm-10.1 7.3c-1.7 0-3.2-1.4-3.2-3.2 0-1.7 1.4-3.2 3.2-3.2 1.7 0 3.2 1.4 3.2 3.2s-1.4 3.2-3.2 3.2zm-9.9 13.6c-2.7 0-5-2.2-5-5 0-2.7 2.2-5 5-5 2.7 0 5 2.2 5 5 0 2.7-2.3 5-5 5zm-3.1 26c-4.8 0-8.7-3.9-8.7-8.7s3.9-8.7 8.7-8.7 8.7 3.9 8.7 8.7-3.9 8.7-8.7 8.7zm24.6 14.9c-2.3.1-4.2-1.6-4.3-3.9s1.6-4.2 3.9-4.3 4.2 1.6 4.3 3.9-1.7 4.2-3.9 4.3zm27 7.6c-1.8.1-3.3-1.2-3.4-3s1.2-3.3 3-3.4 3.3 1.2 3.4 3c.1 1.7-1.2 3.3-3 3.4zm6 8.2c-1.2 0-2.1-.9-2.1-2.1s.9-2.1 2.1-2.1 2.1.9 2.1 2.1c0 1.1-1 2.1-2.1 2.1zm5 7.9c-.6 0-1-.5-1-1 0-.6.5-1 1-1 .6 0 1 .5 1 1 .1.5-.4 1-1 1zm10.2-75.9c0-2.3 1.8-4.1 4.1-4.1s4.1 1.8 4.1 4.1-1.8 4.1-4.1 4.1-4.1-1.8-4.1-4.1zm-.1 54.3c-3.5 0-6.3-2.8-6.3-6.3s2.8-6.3 6.3-6.3 6.3 2.8 6.3 6.3c0 3.4-2.8 6.3-6.3 6.3zm16.5-17.9c1.3 0 2.3 1 2.3 2.3s-1 2.3-2.3 2.3-2.3-1-2.3-2.3 1-2.3 2.3-2.3zm-2.2-10.9c0-1.7 1.4-3.1 3.1-3.1s3.1 1.4 3.1 3.1-1.4 3.1-3.1 3.1-3.1-1.4-3.1-3.1z"/></g></svg>